<?xml version="1.0" encoding="UTF-8" standalone="no"?>
<!DOCTYPE svg PUBLIC "-//W3C//DTD SVG 1.1//EN"
 "http://www.w3.org/Graphics/SVG/1.1/DTD/svg11.dtd">
<!-- Generated by graphviz version 2.40.1 (20161225.0304)
 -->
<!-- Title: dependencies Pages: 1 -->
<svg width="1175pt" height="284pt"
 viewBox="0.00 0.00 1175.00 284.00" xmlns="http://www.w3.org/2000/svg" xmlns:xlink="http://www.w3.org/1999/xlink">
<g id="graph0" class="graph" transform="scale(1 1) rotate(0) translate(4 280)">
<title>dependencies</title>
<polygon fill="#ffffff" stroke="transparent" points="-4,4 -4,-280 1171,-280 1171,4 -4,4"/>
<text text-anchor="start" x="562.5091" y="-42.4" font-family="sans-serif" font-weight="bold" font-size="14.00" fill="#000000">Legend</text>
<polygon fill="#ffffb3" stroke="transparent" points="349.5,-10 349.5,-30 369.5,-30 369.5,-10 349.5,-10"/>
<text text-anchor="start" x="373.129" y="-15.4" font-family="sans-serif" font-size="14.00" fill="#000000"> &#160;Declarations</text>
<polygon fill="#8dd3c7" stroke="transparent" points="462.5,-10 462.5,-30 482.5,-30 482.5,-10 462.5,-10"/>
<text text-anchor="start" x="486.2251" y="-15.4" font-family="sans-serif" font-size="14.00" fill="#000000"> &#160;Module</text>
<polygon fill="#80b1d3" stroke="transparent" points="548.5,-10 548.5,-30 568.5,-30 568.5,-10 548.5,-10"/>
<text text-anchor="start" x="572.2812" y="-15.4" font-family="sans-serif" font-size="14.00" fill="#000000"> &#160;Bootstrap</text>
<polygon fill="#fdb462" stroke="transparent" points="645.5,-10 645.5,-30 665.5,-30 665.5,-10 645.5,-10"/>
<text text-anchor="start" x="669.1732" y="-15.4" font-family="sans-serif" font-size="14.00" fill="#000000"> &#160;Providers</text>
<polygon fill="#fb8072" stroke="transparent" points="741.5,-10 741.5,-30 761.5,-30 761.5,-10 741.5,-10"/>
<text text-anchor="start" x="765.2258" y="-15.4" font-family="sans-serif" font-size="14.00" fill="#000000"> &#160;Exports</text>
<g id="clust1" class="cluster">
<title>cluster_AppModule</title>
<polygon fill="none" stroke="#000000" stroke-dasharray="1,5" points="8,-70 8,-268 1159,-268 1159,-70 8,-70"/>
</g>
<g id="clust2" class="cluster">
<title>cluster_AppModule_declarations</title>
<polygon fill="none" stroke="#000000" points="332,-78 332,-130 1151,-130 1151,-78 332,-78"/>
</g>
<g id="clust8" class="cluster">
<title>cluster_AppModule_imports</title>
<polygon fill="none" stroke="#000000" points="148,-78 148,-130 324,-130 324,-78 148,-78"/>
</g>
<g id="clust10" class="cluster">
<title>cluster_AppModule_bootstrap</title>
<polygon fill="none" stroke="#000000" points="522,-208 522,-260 646,-260 646,-208 522,-208"/>
</g>
<g id="clust11" class="cluster">
<title>cluster_AppModule_providers</title>
<polygon fill="none" stroke="#000000" points="16,-78 16,-130 140,-130 140,-78 16,-78"/>
</g>
<!-- AppComponent -->
<g id="node1" class="node">
<title>AppComponent</title>
<polygon fill="#ffffb3" stroke="#000000" points="1142.9399,-122 1037.0601,-122 1037.0601,-86 1142.9399,-86 1142.9399,-122"/>
<text text-anchor="middle" x="1090" y="-99.8" font-family="Times,serif" font-size="14.00" fill="#000000">AppComponent</text>
</g>
<!-- AppModule -->
<g id="node6" class="node">
<title>AppModule</title>
<polygon fill="#8dd3c7" stroke="#000000" points="625.6571,-187 622.6571,-191 601.6571,-191 598.6571,-187 542.3429,-187 542.3429,-151 625.6571,-151 625.6571,-187"/>
<text text-anchor="middle" x="584" y="-164.8" font-family="Times,serif" font-size="14.00" fill="#000000">AppModule</text>
</g>
<!-- AppComponent&#45;&gt;AppModule -->
<g id="edge1" class="edge">
<title>AppComponent&#45;&gt;AppModule</title>
<path fill="none" stroke="#000000" d="M1090,-122.2921C1090,-144.2057 1090,-178 1090,-178 1090,-178 635.8386,-178 635.8386,-178"/>
<polygon fill="#000000" stroke="#000000" points="635.8386,-174.5001 625.8386,-178 635.8386,-181.5001 635.8386,-174.5001"/>
</g>
<!-- DashboardComponent -->
<g id="node2" class="node">
<title>DashboardComponent</title>
<polygon fill="#ffffb3" stroke="#000000" points="1018.9734,-122 877.0266,-122 877.0266,-86 1018.9734,-86 1018.9734,-122"/>
<text text-anchor="middle" x="948" y="-99.8" font-family="Times,serif" font-size="14.00" fill="#000000">DashboardComponent</text>
</g>
<!-- DashboardComponent&#45;&gt;AppModule -->
<g id="edge2" class="edge">
<title>DashboardComponent&#45;&gt;AppModule</title>
<path fill="none" stroke="#000000" d="M948,-122.1061C948,-141.3391 948,-169 948,-169 948,-169 635.7554,-169 635.7554,-169"/>
<polygon fill="#000000" stroke="#000000" points="635.7555,-165.5001 625.7554,-169 635.7554,-172.5001 635.7555,-165.5001"/>
</g>
<!-- DecryptionPageComponent -->
<g id="node3" class="node">
<title>DecryptionPageComponent</title>
<polygon fill="#ffffb3" stroke="#000000" points="858.5225,-122 687.4775,-122 687.4775,-86 858.5225,-86 858.5225,-122"/>
<text text-anchor="middle" x="773" y="-99.8" font-family="Times,serif" font-size="14.00" fill="#000000">DecryptionPageComponent</text>
</g>
<!-- DecryptionPageComponent&#45;&gt;AppModule -->
<g id="edge3" class="edge">
<title>DecryptionPageComponent&#45;&gt;AppModule</title>
<path fill="none" stroke="#000000" d="M773,-122.027C773,-138.3976 773,-160 773,-160 773,-160 635.9452,-160 635.9452,-160"/>
<polygon fill="#000000" stroke="#000000" points="635.9453,-156.5001 625.9452,-160 635.9452,-163.5001 635.9453,-156.5001"/>
</g>
<!-- EncryptionPageComponent -->
<g id="node4" class="node">
<title>EncryptionPageComponent</title>
<polygon fill="#ffffb3" stroke="#000000" points="669.2534,-122 498.7466,-122 498.7466,-86 669.2534,-86 669.2534,-122"/>
<text text-anchor="middle" x="584" y="-99.8" font-family="Times,serif" font-size="14.00" fill="#000000">EncryptionPageComponent</text>
</g>
<!-- EncryptionPageComponent&#45;&gt;AppModule -->
<g id="edge4" class="edge">
<title>EncryptionPageComponent&#45;&gt;AppModule</title>
<path fill="none" stroke="#000000" d="M584,-122.1061C584,-122.1061 584,-140.991 584,-140.991"/>
<polygon fill="#000000" stroke="#000000" points="580.5001,-140.9909 584,-150.991 587.5001,-140.991 580.5001,-140.9909"/>
</g>
<!-- InfoPopupComponent -->
<g id="node5" class="node">
<title>InfoPopupComponent</title>
<polygon fill="#ffffb3" stroke="#000000" points="480.4369,-122 339.5631,-122 339.5631,-86 480.4369,-86 480.4369,-122"/>
<text text-anchor="middle" x="410" y="-99.8" font-family="Times,serif" font-size="14.00" fill="#000000">InfoPopupComponent</text>
</g>
<!-- InfoPopupComponent&#45;&gt;AppModule -->
<g id="edge5" class="edge">
<title>InfoPopupComponent&#45;&gt;AppModule</title>
<path fill="none" stroke="#000000" d="M410,-122.027C410,-138.3976 410,-160 410,-160 410,-160 532.3227,-160 532.3227,-160"/>
<polygon fill="#000000" stroke="#000000" points="532.3227,-163.5001 542.3227,-160 532.3226,-156.5001 532.3227,-163.5001"/>
</g>
<!-- AppComponent  -->
<g id="node8" class="node">
<title>AppComponent </title>
<polygon fill="#80b1d3" stroke="#000000" points="638.439,-252 529.561,-252 529.561,-216 638.439,-216 638.439,-252"/>
<text text-anchor="middle" x="584" y="-229.8" font-family="Times,serif" font-size="14.00" fill="#000000">AppComponent </text>
</g>
<!-- AppModule&#45;&gt;AppComponent  -->
<g id="edge7" class="edge">
<title>AppModule&#45;&gt;AppComponent </title>
<path fill="none" stroke="#000000" stroke-dasharray="1,5" d="M584,-187.1061C584,-187.1061 584,-205.991 584,-205.991"/>
<polygon fill="#000000" stroke="#000000" points="580.5001,-205.9909 584,-215.991 587.5001,-205.991 580.5001,-205.9909"/>
</g>
<!-- MyOwnMaterialsModule -->
<g id="node7" class="node">
<title>MyOwnMaterialsModule</title>
<polygon fill="#8dd3c7" stroke="#000000" points="315.573,-122 312.573,-126 291.573,-126 288.573,-122 156.427,-122 156.427,-86 315.573,-86 315.573,-122"/>
<text text-anchor="middle" x="236" y="-99.8" font-family="Times,serif" font-size="14.00" fill="#000000">MyOwnMaterialsModule</text>
</g>
<!-- MyOwnMaterialsModule&#45;&gt;AppModule -->
<g id="edge6" class="edge">
<title>MyOwnMaterialsModule&#45;&gt;AppModule</title>
<path fill="none" stroke="#000000" d="M236,-122.1061C236,-141.3391 236,-169 236,-169 236,-169 532.0231,-169 532.0231,-169"/>
<polygon fill="#000000" stroke="#000000" points="532.0231,-172.5001 542.0231,-169 532.023,-165.5001 532.0231,-172.5001"/>
</g>
<!-- ApiService -->
<g id="node9" class="node">
<title>ApiService</title>
<ellipse fill="#fdb462" stroke="#000000" cx="78" cy="-104" rx="54.4508" ry="18"/>
<text text-anchor="middle" x="78" y="-99.8" font-family="Times,serif" font-size="14.00" fill="#000000">ApiService</text>
</g>
<!-- ApiService&#45;&gt;AppModule -->
<g id="edge8" class="edge">
<title>ApiService&#45;&gt;AppModule</title>
<path fill="none" stroke="#000000" d="M78,-122.2921C78,-144.2057 78,-178 78,-178 78,-178 532.1614,-178 532.1614,-178"/>
<polygon fill="#000000" stroke="#000000" points="532.1614,-181.5001 542.1614,-178 532.1614,-174.5001 532.1614,-181.5001"/>
</g>
</g>
</svg>
